PathFileType	4	(X/Y/Z)	pose_F01_0-96.trc
DataRate	CameraRate	NumFrames	NumMarkers	Units	OrigDataRate	OrigDataStartFrame	OrigNumFrames
30	30	8	21	m	30	60	96
Frame#	Time	CHip			RHip			RKnee			RAnkle			RBigToe			RSmallToe			RHeel			LHip			LKnee			LAnkle			LBigToe			LSmallToe			LHeel			Neck			Nose			RShoulder			RElbow			RWrist			LShoulder			LElbow			LWrist			
		X1	Y1	Z1	X2	Y2	Z2	X3	Y3	Z3	X4	Y4	Z4	X5	Y5	Z5	X6	Y6	Z6	X7	Y7	Z7	X8	Y8	Z8	X9	Y9	Z9	X10	Y10	Z10	X11	Y11	Z11	X12	Y12	Z12	X13	Y13	Z13	X14	Y14	Z14	X15	Y15	Z15	X16	Y16	Z16	X17	Y17	Z17	X18	Y18	Z18	X19	Y19	Z19	X20	Y20	Z20	X21	Y21	Z21	
60	2.0	-0.29620528535507357	1.8744731633506546	-0.5847407885981053	-0.303033310663659	1.8701398592590608	-0.5261305700693318	-0.2807654697180144	1.721520282054301	-0.47219281479845987	-0.29275629158682925	1.556563569451173	-0.4336830566168926	-0.27014286084009775	1.5360611585046713	-0.42303214051700344	-0.28296457826466137	1.53879457464986	-0.3943572334355389	-0.34858848952811816	1.5533060781926975	-0.4008680551061525	-0.28856763058525564	1.8778834464015735	-0.6430416863587367	-0.28688287943099494	1.7287586197603237	-0.6539514021235796													-0.30940681208866405	2.041727779393145	-0.5931847422499231	-0.28149868898598146	2.1107250078064186	-0.5760842153500941	-0.3273800262164104	2.038305236252504	-0.5152202913718342	-0.28353057979328355	2.0502645939461908	-0.4356656107463276	-0.2991831221709911	2.0839695640906495	-0.5029638085788591	-0.2962172835940006	2.0485714369250236	-0.6766388398158447	-0.22826218550246402	2.044306272280359	-0.6854388373714678	-0.25940287149061	2.1012875656848915	-0.6537648972966937
61	2.033333333333333	-0.2955756409339544	1.8708488370584617	-0.5724953592028236	-0.30701059119678736	1.866209780236775	-0.5126759043838044	-0.2809511718569675	1.7175624945503503	-0.4716034574173349	-0.29275629158682925	1.556563569451173	-0.4336830566168926	-0.28711125915513436	1.5345183989728484	-0.41370249650723395	-0.29690525892689745	1.53793639561264	-0.3839488112634906	-0.34858848952811816	1.5533060781926975	-0.4008680551061525	-0.2868382955755991	1.8765053331092738	-0.6279645327730201	-0.28688287943099494	1.7287586197603237	-0.6539514021235796													-0.3097175664807539	2.0335078795560966	-0.5838414068573929	-0.28159985461915366	2.0965029199125382	-0.5723842023931743	-0.3257060670994967	2.0292601927879357	-0.5078049476316898	-0.2914253952961653	2.033882724347845	-0.4240729772635104	-0.29997733603165205	2.0825191649347192	-0.49858754136730554	-0.299142908207642	2.038978882217264	-0.6565769688021376	-0.23213162592718808	2.030836707017386	-0.6666830560894668	-0.2626817240589764	2.084657638026333	-0.6403761764807875
62	2.066666666666667	-0.30220139249121186	1.8662147225326196	-0.556986559066076	-0.31326121813956675	1.861670794873439	-0.4971029030745326	-0.2904936556677065	1.7107254587161844	-0.46528386659343324	-0.29275629158682925	1.556563569451173	-0.4336830566168926	-0.2898224032472337	1.5352220215314338	-0.41069378981078913	-0.2997754520643321	1.5369603668006406	-0.38071078016524323	-0.34858848952811816	1.5533060781926975	-0.4008680551061525	-0.29091253388067756	1.8685988557960953	-0.6195653829962612	-0.28688287943099494	1.7287586197603237	-0.6539514021235796													-0.311920965079049	2.031478277082289	-0.5733558310178578	-0.27914276437522884	2.091144646549893	-0.5719104147022209	-0.3237458504799452	2.027914844904679	-0.5014882641880285	-0.29551101110743955	2.021835311211711	-0.4094727854285343	-0.2957687440686255	2.0733448601490565	-0.4892185607820537	-0.303601018316324	2.036044339889185	-0.6437243409253199	-0.23920707100714608	2.021549280917656	-0.6502963999800386	-0.26024561538309304	2.0726969751152318	-0.6305476398282189
63	2.1	-0.30521164647875254	1.8647887903910216	-0.5492287680622172	-0.3131586163312977	1.8627930535852268	-0.4969869160017681	-0.2927648838929286	1.709968222078467	-0.4628170959249262	-0.29275629158682925	1.556563569451173	-0.4336830566168926	-0.29163947092722015	1.5370884314010844	-0.40929868673529146	-0.29977742738571	1.539184670660943	-0.3813138218517073	-0.34858848952811816	1.5533060781926975	-0.4008680551061525	-0.2940043128382207	1.8671888824127234	-0.6119369762931778	-0.28688287943099494	1.7287586197603237	-0.6539514021235796													-0.3199828012621822	2.0329799703970166	-0.5563859344616637	-0.27626792717160803	2.0894861063144528	-0.5630484013442515	-0.33820355807011293	2.029555410808518	-0.481488724478639	-0.2920277766991328	2.014934081779563	-0.4060936009234581	-0.29156015210559905	2.0641705553633938	-0.4798495801968019	-0.3038574758872713	2.0362408784571246	-0.6351923907487793	-0.23993178109839897	2.0113947519617423	-0.6409239485077342	-0.26785915647190134	2.065578812108668	-0.6090822030866216
64	2.1333333333333333	-0.30728290159218313	1.8731635933035267	-0.5480598951588218	-0.3141845346478749	1.8684001160150434	-0.4925400319265734	-0.2957882002568056	1.7149201538759928	-0.46439533782488834	-0.29275629158682925	1.556563569451173	-0.4336830566168926	-0.29262624938446585	1.5364351663659213	-0.4125284328809748	-0.3008125913837227	1.5386778619128147	-0.38457540170856036	-0.34858848952811816	1.5533060781926975	-0.4008680551061525	-0.30021657509646243	1.8767762578528806	-0.6065646259354722	-0.28688287943099494	1.7287586197603237	-0.6539514021235796													-0.31881541415593634	2.038213576366331	-0.5539113126315933	-0.2772260838550974	2.0927367599106868	-0.5586941256517586	-0.3350705536483858	2.034958402726804	-0.48109099280242124	-0.2909534093958139	2.014106758862935	-0.4030528218015473	-0.2905793329867464	2.063184024029264	-0.4758401410031892	-0.3059823957020893	2.040296370617842	-0.6256003519331989	-0.24673119774210572	2.0078509408549667	-0.6347858206513244	-0.26788204081608785	2.070750078429667	-0.6101822052768817
65	2.1666666666666665	-0.31003280101355807	1.8759038530645744	-0.5494501220058888	-0.317042436579771	1.8713317631665136	-0.4940547618907525	-0.30375312882073374	1.716508883092717	-0.45616325010801273	-0.29275629158682925	1.556563569451173	-0.4336830566168926	-0.29267107421474203	1.5365995351446429	-0.41252108291275114	-0.30070886745600117	1.5381478620627613	-0.3845459180424957	-0.3491165227570095	1.5532992104572008	-0.40106625226921855	-0.3032552990199216	1.8797949233773417	-0.6078433252069922	-0.28688287943099494	1.7287586197603237	-0.6539514021235796													-0.3195612137470566	2.0402798548454357	-0.5486565267220957	-0.2762290623425992	2.094193714106063	-0.556173051514246	-0.33660037715692925	2.038997511851969	-0.47868756865109907	-0.29110268316455373	2.02012486861271	-0.40491223677551424	-0.29454176234957913	2.07094204642714	-0.47367283682189565	-0.3070669368454742	2.0437948881682275	-0.6211686048809466	-0.24346203060530408	2.020760753380421	-0.6363441741045833	-0.26763006193630917	2.074899748261331	-0.6104369685387611
66	2.2	-0.3103052038380006	1.8757132290929175	-0.5494707140674174	-0.3162735138222189	1.869650860254248	-0.49084783834744883	-0.3094029390794384	1.7203895608189708	-0.4551092367564368	-0.29275629158682925	1.556563569451173	-0.4336830566168926	-0.2914411952958008	1.535976078512317	-0.40928175256607807	-0.3024829960343993	1.5376932787336388	-0.3825075154105951	-0.3496445559859008	1.5532923427217038	-0.40126444943228456	-0.30332966490027063	1.880870109034489	-0.6080216610851243	-0.28688287943099494	1.7287586197603237	-0.6539514021235796													-0.31733821382809524	2.044764742102824	-0.5516915192892582	-0.27712758635639545	2.096540764654403	-0.5513823824803499	-0.3237224906620237	2.040657423372576	-0.4888616464184399	-0.2991308314177996	2.0285415230238617	-0.3917524628877681	-0.30432475256185487	2.0750291365027103	-0.4723677069416034	-0.30264273848439854	2.0481096198412065	-0.6257080712573876	-0.2430886571840074	2.0247696219749654	-0.6455395040107147	-0.27008366676135787	2.078919895538464	-0.6194733315977105
67	2.2333333333333334	-0.31091856015672203	1.8791030459268907	-0.5529624143731187	-0.31908509758480497	1.8727649255983694	-0.4923294343986697	-0.312181379747123	1.7174087360446535	-0.45616113270819153	-0.29275629158682925	1.556563569451173	-0.4336830566168926	-0.2908732204309098	1.53570202890733	-0.4097613935221994	-0.3007865669317092	1.5371529649382052	-0.37972406638786876	-0.3501725892147921	1.553285474986207	-0.40146264659535064	-0.30310505140717797	1.8835239121340475	-0.6082710810545584	-0.28688287943099494	1.7287586197603237	-0.6539514021235796													-0.3182626587511129	2.0480636893074373	-0.5551426887021738	-0.2809100380763319	2.1049561254118774	-0.5481266391500618	-0.3325880227164315	2.0433946912165477	-0.48388087087233206	-0.295709045895991	2.027911599206257	-0.397409996985635	-0.30647577125347936	2.0758245698834745	-0.4801826252898283	-0.3022248289487601	2.052857326558412	-0.6342106529629791	-0.2425295325575166	2.029343819736703	-0.654084904700172	-0.2697861236023193	2.082953778345584	-0.6197606537362991
